<svg xmlns="http://www.w3.org/2000/svg" viewBox="0 0 3026.91 2313.04"><g class="color000000 svgShape" data-name="Layer 1"><path fill="#e8f1ff" d="M1495.48 372.35C1096.2 414 1104.71 764.11 938.5 995.57c-183.27 255.2-321.5 346.35-328.85 629.76-6.72 260.67 233.62 621.77 1106.64 530.15s1032.42-794.39 786.33-1192.07C2272.28 591.2 1911.11 329 1495.48 372.35Z" class="colore8f8ff svgShape"/><path fill="#cde0ff" d="M2341.5 1561.8s45.44-77.46 88.55-96.87 80 12 50.36 47.91c-27.76 33.61-94.47 22.69-138.91 48.96ZM2316.64 1484.9s-28.23-85.26-66.32-113.25-80.77-5-59.27 36.31c20.11 38.68 87.63 41.95 125.59 76.94ZM2266.1 1694.37s9.5-52.84 5-88.15c-5.94-46.76-42.88-80.85-72.1-58.44-22.31 17.1-9.11 52.77 30.22 87.8 35.1 31.25 36.88 58.79 36.88 58.79ZM2347.56 1367.67c6.54-30.49 23.67-117.34 48.44-149.28s51.82-21.44 59.54-16 25.08 29.37 6.14 66.06c-19.68 38.06-114.12 99.22-114.12 99.22ZM2315.63 1258.75c4.58-22.84 19.61-112.65 17-148.44s-22.9-60.86-54-56.07c-27.13 4.18-44.16 30.67-35.07 69.14 8.63 36.3 72.07 135.37 72.07 135.37Z" class="colorcdefff svgShape"/><path fill="#cde0ff" d="M2209.88 1889.68a1.79 1.79 0 0 1-.58-.27 1.85 1.85 0 0 1-.48-2.58c18.51-27 88.53-197.12 104.39-303.43 18-120.67 26.86-260.16-29.85-462a1.86 1.86 0 0 1 3.58-1c56.9 202.55 48 342.51 29.95 463.59-16.62 111.39-87.19 279-105 305a1.87 1.87 0 0 1-2.01.69Z" class="colorcdefff svgShape"/><path fill="#cde0ff" d="M2328.37 1425.6a1.86 1.86 0 0 1-1.36-2.08c8.22-54.34 66.55-148 95-178a1.86 1.86 0 0 1 2.7 2.56c-28.17 29.75-85.91 122.36-94 176a1.86 1.86 0 0 1-2.12 1.56ZM2322.37 1526a1.87 1.87 0 0 1-1.37-2c7.8-61-61.68-98.3-83.16-108.28a1.85 1.85 0 0 1-.9-2.47 1.88 1.88 0 0 1 2.47-.9c22.06 10.25 93.4 48.63 85.28 112.12a1.87 1.87 0 0 1-2.08 1.62ZM2309.81 1612h-.16a1.86 1.86 0 0 1-1.11-2.39c21.7-59.36 91.11-102.43 132.86-110.7a1.86 1.86 0 1 1 .73 3.64c-40.9 8.11-108.86 50.26-130.1 108.34a1.86 1.86 0 0 1-2.22 1.11ZM2259.86 1776.67l-.21-.07a1.85 1.85 0 0 1-1-2.41c18.28-46.2 1.43-153.11-29.55-187.54a1.86 1.86 0 1 1 2.76-2.49c31.65 35.16 48.89 144.27 30.24 191.4a1.86 1.86 0 0 1-2.24 1.11ZM763.64 2024.86l4.32-3.29c-27.08-35.49-141.31-256.25-210.42-444-66.85-181.62-77.64-274.42-73.39-365.3l-5.42-.25c-4.29 91.55 6.55 184.94 73.72 367.42 69.28 188.2 183.96 409.74 211.19 445.42Z" class="colorcdefff svgShape"/><path fill="#cde0ff" d="M545.92 1561.69h5.43c0-35.58 7.59-121.68 36.75-192.79l-5-2.06c-29.5 71.89-37.22 158.89-37.18 194.85ZM628.32 1762.06l4.56-2.93c-38.23-59.62-270.56-278.49-280.43-287.78l-3.72 4c2.41 2.22 241.71 227.65 279.59 286.71Z" class="colorcdefff svgShape"/><path fill="#cde0ff" d="M577.91 1388.35s64.2-75 38-88.72c-32.52-17.02-38 88.72-38 88.72ZM481.78 1219.86s24.3-95.68-5.29-96.36c-36.67-.85 5.29 96.36 5.29 96.36ZM357.19 1480.41s-34.08-92.64-58.87-76.47c-30.72 20.06 58.87 76.47 58.87 76.47ZM389.05 1511.34s18.58-107.52-18.89-100.41c-46.42 8.82 18.89 100.41 18.89 100.41Z" class="colorcdefff svgShape"/><path fill="#cde0ff" d="M389.25 1510.41S281 1510 293.5 1475.1c15.5-43.22 95.75 35.31 95.75 35.31ZM492 1366.26s73.26-80.87 37.81-94.92c-43.97-17.41-37.81 94.92-37.81 94.92Z" class="colorcdefff svgShape"/><path fill="#cde0ff" d="M492.24 1366.11s-91.17-58.31-62-81.09c36.23-28.23 62 81.09 62 81.09ZM481.36 1273.32s81.3-72.79 47.51-90.46c-41.87-21.86-47.51 90.46-47.51 90.46Z" class="colorcdefff svgShape"/><path fill="#cde0ff" d="M481.61 1273.18s-84.59-67.5-53.16-87.11c38.94-24.3 53.16 87.11 53.16 87.11ZM463.74 1582.38s3.71-109.05-32.43-96.89c-44.78 15.07 32.43 96.89 32.43 96.89Z" class="colorcdefff svgShape"/><path fill="#cde0ff" d="M463.81 1581.43s-107.27 14.36-99.68-21.9c9.4-44.93 99.68 21.9 99.68 21.9ZM543.1 1662.12s-4.11-109-39.29-94.32c-43.58 18.2 39.29 94.32 39.29 94.32Z" class="colorcdefff svgShape"/><path fill="#cde0ff" d="M543.1 1661.17s-106 22-101-14.71c6.17-45.46 101 14.71 101 14.71ZM563.36 1439.43s14.94-83.67-14-78.72c-35.84 6.14 14 78.72 14 78.72ZM563.51 1439.47s41.38-74.25 60.65-52.1c23.84 27.44-60.65 52.1-60.65 52.1Z" class="colorcdefff svgShape"/><path fill="#99b6e5" d="M747.43 1252v730.52c0 37.76-13.46 70.85-33.62 89.2-10.66 9.71-23.19 15.3-36.59 15.3-38.78 0-70.21-46.79-70.21-104.5V1252q61.43-23.58 122.83-5.92 8.79 2.56 17.59 5.92Z" class="color99cbe5 svgShape"/><path fill="#ea4335" d="M677.21 1389.31c-36.31 0-65.74 4.07-65.74 9.11v567.78c0 54 29.43 97.83 65.73 97.83 36.3 0 65.73-43.8 65.73-97.83v-567.78c.07-5.04-29.41-9.11-65.72-9.11Z" class="colore23457 svgShape"/><path d="M747.43 1252v730.52c0 37.76-13.46 70.85-33.62 89.2v-806.21s27.75-15.74 33.62-13.51Z" style="mix-blend-mode:multiply" fill="#e0ecff" class="colore0f4ff svgShape"/><path fill="#fff" d="M649.49 2034.92a3.09 3.09 0 0 1-1.65-.51c-30-19.08-30-75.8-30-94.44v-.81c0-17.39 3.47-650.32 3.51-656.71 0-3.44 1.89-6.21 4.2-6.21 2.32 0 4.19 2.85 4.17 6.31 0 6.39-3.5 639.27-3.5 656.61v.82c0 18.35 0 67.09 24.89 82.93 2.14 1.35 3.13 5 2.22 8.21-.65 2.37-2.21 3.8-3.84 3.8Z" class="colorffffff svgShape" opacity=".42"/><path fill="#adb4bf" d="M766.37 1189.67v67.12c0 6.76-4.24 12.21-9.46 12.21H597.49c-5.22 0-9.43-5.45-9.43-12.21v-67.12c0-6.75 4.21-12.2 9.43-12.2h159.42c5.22 0 9.46 5.45 9.46 12.2Z" class="colorbfadad svgShape"/><path d="M766.37 1251.71v5.08c0 6.76-4.24 12.21-9.46 12.21H597.49c-5.22 0-9.43-5.45-9.43-12.21v-5.08Z" style="mix-blend-mode:multiply" fill="#d4ddeb" class="colorebd4d4 svgShape"/><path fill="#a68c8a" d="M620.36 1257.05a2.53 2.53 0 0 1-2.53-2.53v-62.58a2.52 2.52 0 0 1 2.53-2.52 2.52 2.52 0 0 1 2.52 2.52v62.58a2.52 2.52 0 0 1-2.52 2.53ZM658.26 1257.05a2.53 2.53 0 0 1-2.53-2.53v-62.58a2.53 2.53 0 0 1 2.53-2.52 2.52 2.52 0 0 1 2.52 2.52v62.58a2.52 2.52 0 0 1-2.52 2.53Z" class="colora68a8a svgShape"/><path fill="#fff" stroke="#1f2320" stroke-miterlimit="10" d="M696.16 1257.05a2.53 2.53 0 0 1-2.53-2.53v-62.58a2.53 2.53 0 0 1 2.53-2.52 2.52 2.52 0 0 1 2.52 2.52v62.58a2.52 2.52 0 0 1-2.52 2.53ZM734.06 1257.05a2.52 2.52 0 0 1-2.52-2.53v-62.58a2.52 2.52 0 0 1 2.52-2.52 2.52 2.52 0 0 1 2.52 2.52v62.58a2.52 2.52 0 0 1-2.52 2.53Z" class="colorffffff svgShape colorStroke231f20 svgStroke"/><path fill="#99b6e5" d="M1022.88 1252v730.52c0 37.76-13.46 70.85-33.62 89.2-10.66 9.71-23.19 15.3-36.6 15.3-38.78 0-70.22-46.79-70.22-104.5V1252q61.43-23.58 122.84-5.92 8.8 2.56 17.6 5.92Z" class="color99cbe5 svgShape"/><path fill="#ea4335" d="M952.66 1389.31c-36.31 0-65.74 4.07-65.74 9.11v567.78c0 54 29.43 97.83 65.73 97.83 36.31 0 65.74-43.8 65.74-97.83v-567.78c.01-5.04-29.39-9.11-65.73-9.11Z" class="colore23457 svgShape"/><path d="M1022.88 1252v730.52c0 37.76-13.46 70.85-33.62 89.2v-806.21s27.74-15.74 33.62-13.51Z" style="mix-blend-mode:multiply" fill="#e0ecff" class="colore0f4ff svgShape"/><path fill="#fff" d="M924.94 2034.92a3.09 3.09 0 0 1-1.65-.51c-30-19.08-30-75.8-30-94.44v-.81c0-17.39 3.47-650.32 3.5-656.71 0-3.44 1.9-6.21 4.21-6.21 2.32 0 4.19 2.85 4.17 6.31 0 6.39-3.5 639.27-3.5 656.61v.82c0 18.35 0 67.09 24.89 82.93 2.14 1.35 3.13 5 2.22 8.21-.66 2.37-2.21 3.8-3.84 3.8Z" class="colorffffff svgShape" opacity=".42"/><path fill="#adb4bf" d="M1041.82 1189.67v67.12c0 6.76-4.24 12.21-9.46 12.21H872.94c-5.22 0-9.43-5.45-9.43-12.21v-67.12c0-6.75 4.21-12.2 9.43-12.2h159.42c5.22 0 9.46 5.45 9.46 12.2Z" class="colorbfadad svgShape"/><path d="M1041.82 1251.71v5.08c0 6.76-4.24 12.21-9.46 12.21H872.94c-5.22 0-9.43-5.45-9.43-12.21v-5.08Z" style="mix-blend-mode:multiply" fill="#d4ddeb" class="colorebd4d4 svgShape"/><path fill="#a68c8a" d="M895.81 1257.05a2.53 2.53 0 0 1-2.53-2.53v-62.58a2.52 2.52 0 0 1 2.53-2.52 2.52 2.52 0 0 1 2.52 2.52v62.58a2.52 2.52 0 0 1-2.52 2.53ZM933.71 1257.05a2.53 2.53 0 0 1-2.53-2.53v-62.58a2.52 2.52 0 0 1 2.53-2.52 2.52 2.52 0 0 1 2.52 2.52v62.58a2.52 2.52 0 0 1-2.52 2.53ZM971.61 1257.05a2.53 2.53 0 0 1-2.53-2.53v-62.58a2.52 2.52 0 0 1 2.53-2.52 2.52 2.52 0 0 1 2.52 2.52v62.58a2.52 2.52 0 0 1-2.52 2.53ZM1009.51 1257.05a2.53 2.53 0 0 1-2.53-2.53v-62.58a2.52 2.52 0 0 1 2.53-2.52 2.52 2.52 0 0 1 2.52 2.52v62.58a2.52 2.52 0 0 1-2.52 2.53Z" class="colora68a8a svgShape"/><path fill="#99b6e5" d="M1298.33 1252v730.52c0 37.76-13.46 70.85-33.62 89.2-10.67 9.71-23.19 15.3-36.6 15.3-38.78 0-70.22-46.79-70.22-104.5V1252q61.42-23.58 122.84-5.92 8.79 2.56 17.6 5.92Z" class="color99cbe5 svgShape"/><path fill="#ea4335" d="M1228.11 1389.31c-36.31 0-65.74 4.07-65.74 9.11v567.78c0 54 29.43 97.83 65.73 97.83 36.3 0 65.73-43.8 65.73-97.83v-567.78c.01-5.04-29.42-9.11-65.72-9.11Z" class="colore23457 svgShape"/><path d="M1298.33 1252v730.52c0 37.76-13.46 70.85-33.62 89.2v-806.21s27.75-15.74 33.62-13.51Z" style="mix-blend-mode:multiply" fill="#e0ecff" class="colore0f4ff svgShape"/><path fill="#fff" d="M1200.39 2034.92a3.09 3.09 0 0 1-1.65-.51c-30-19.08-30-75.8-30-94.44v-.81c0-17.39 3.47-650.32 3.5-656.71 0-3.44 1.9-6.21 4.2-6.21 2.32 0 4.19 2.85 4.17 6.31 0 6.39-3.51 639.27-3.51 656.61v.82c0 18.35 0 67.09 24.9 82.93 2.13 1.35 3.12 5 2.21 8.21-.64 2.37-2.21 3.8-3.82 3.8Z" class="colorffffff svgShape" opacity=".42"/><path fill="#adb4bf" d="M1317.27 1189.67v67.12c0 6.76-4.25 12.21-9.46 12.21h-159.43c-5.21 0-9.42-5.45-9.42-12.21v-67.12c0-6.75 4.21-12.2 9.42-12.2h159.43c5.19 0 9.46 5.45 9.46 12.2Z" class="colorbfadad svgShape"/><path d="M1317.27 1251.71v5.08c0 6.76-4.25 12.21-9.46 12.21h-159.43c-5.21 0-9.42-5.45-9.42-12.21v-5.08Z" style="mix-blend-mode:multiply" fill="#d4ddeb" class="colorebd4d4 svgShape"/><path fill="#a68c8a" d="M1171.25 1257.05a2.52 2.52 0 0 1-2.52-2.53v-62.58a2.52 2.52 0 0 1 2.52-2.52 2.52 2.52 0 0 1 2.53 2.52v62.58a2.53 2.53 0 0 1-2.53 2.53Z" class="colora68a8a svgShape"/><path fill="#fff" stroke="#1f2320" stroke-miterlimit="10" d="M1209.16 1257.05a2.53 2.53 0 0 1-2.53-2.53v-62.58a2.52 2.52 0 0 1 2.53-2.52 2.52 2.52 0 0 1 2.52 2.52v62.58a2.52 2.52 0 0 1-2.52 2.53ZM1247.06 1257.05a2.53 2.53 0 0 1-2.53-2.53v-62.58a2.52 2.52 0 0 1 2.53-2.52 2.52 2.52 0 0 1 2.52 2.52v62.58a2.52 2.52 0 0 1-2.52 2.53Z" class="colorffffff svgShape colorStroke231f20 svgStroke"/><rect width="5.05" height="67.63" x="1282.43" y="1189.42" fill="#fff" stroke="#1f2320" stroke-miterlimit="10" class="colorffffff svgShape colorStroke231f20 svgStroke" rx="1.98"/><path fill="#e9dcb6" d="M496.26 2027.97h909.99v72.11H496.26zM556.59 1526.53h792.15v29.84H556.59z" class="colore9c6b6 svgShape"/><path fill="#e9dcb6" d="M508.01 2135.75h-32.38l80.96-609.22h32.38l-80.96 609.22zM1429.69 2135.75h-32.38l-80.95-609.22h32.38l80.95 609.22z" class="colore9c6b6 svgShape"/><path fill="#fbbc05" d="M1294.73 1332c-34.1-44.72-61.39-64.42-86.29-64.17s-34.14 20.69-30.56 28.58 69.84 108.68 79.9 145.14 40.56 118.79 94.23 139-17.82-196.83-57.28-248.55Z" class="colorf9beaa svgShape"/><path fill="#cde0ff" d="M349.29 1599.7c-39.54 141.58-160.92 456 213.42 554.85 69.36 18.32 120.67-208.79 2-361.81-72.54-93.48-215.42-193.04-215.42-193.04Z" class="colorcdefff svgShape"/><path fill="#fff" d="M587.06 2151.22c-74.12-77.68-215.42-386.91-239.37-551.29l3.2-.47c25.54 175.35 171.48 479.28 238.51 549.54Z" class="colorffffff svgShape"/><path fill="#fff" d="m416.3 1826.44-1.47-.36c-3.55-.88-87.1-21.91-108.91-62.82l2.85-1.52c19.6 36.76 94 57.78 105.36 60.82 3.93-12.53 31.58-102.18 33.67-145.16l3.23.15c-2.26 46.46-34 146.44-34.28 147.45ZM497.21 2008.69c-7.25 0-130.9-1.42-182.08-45.28l2.1-2.45c49.06 42 166.83 44.38 179.25 44.5 5.77-13.32 67.81-157.93 66.59-212.68l3.23-.07c1.29 57.84-64.49 208.63-67.29 215l-.42 1h-1.38Z" class="colorffffff svgShape"/><path fill="#c2716a" d="M1096 1273.9c3.41 23.25 57.6 210.47 73 234.58s102.18-16.25 86.6-58.49-43-143.1-78.13-180.65c-38-40.52-85.28-21.34-81.47 4.56Z" class="colorc27e6a svgShape"/><path fill="#99b6e5" d="M1692.42 282.29a67.55 67.55 0 0 0-135.09-.21c-79.15 11.45-380.19 33-380.19 110.24v1131.12A139.81 139.81 0 0 0 1317 1663.25h615.83a139.81 139.81 0 0 0 139.82-139.81V392.32c-.04-77.22-301.3-98.52-380.23-110.03Z" class="color99cbe5 svgShape"/><path fill="#5f91e5" d="M2009.78 477.14v1046.31a77.05 77.05 0 0 1-77 77H1317a77.08 77.08 0 0 1-77-77V477.14a77.08 77.08 0 0 1 77-76.95h615.84a77.05 77.05 0 0 1 76.94 76.95Z" class="color5fb6e5 svgShape"/><path fill="#d13c30" d="M1240 884.28c61.88-66.44 377.85-20 547.55-34.79s222.27 36.32 222.27 36.32l-9.82 168.31h-735.29Z" class="colord13050 svgShape"/><path fill="#ea4335" d="M2009.78 885.81v637.64a77.05 77.05 0 0 1-77 77H1317a77.08 77.08 0 0 1-77-77V884.28c184 33.94 530.28-10.56 769.78 1.53Z" class="colore23457 svgShape"/><path fill="#fff" d="M1928.08 1152.68a15.71 15.71 0 0 1-15.71-15.71V662.53a15.71 15.71 0 0 1 15.71-15.71 15.71 15.71 0 0 1 15.71 15.71V1137a15.71 15.71 0 0 1-15.71 15.68ZM1928.08 1543.86a15.71 15.71 0 0 1-15.71-15.71v-266a15.71 15.71 0 0 1 15.71-15.71 15.71 15.71 0 0 1 15.71 15.71v266a15.72 15.72 0 0 1-15.71 15.71Z" class="colorffffff svgShape" opacity=".42"/><path fill="#f7b1ab" d="M1738.36 863.61c-66.77 0-126.76 55.06-126.76 121.84v-1.17c0-66.78-59.17-120.67-125.94-120.67a120.91 120.91 0 0 0-120.91 120.9c0 36.55 15.77 61.91 49.38 99 67.95 75 197.47 193.4 197.47 193.4s130.34-118.39 198.29-193.4c33.61-37.11 49.38-62.47 49.38-99a120.9 120.9 0 0 0-120.91-120.9Z" class="colorf7abbe svgShape"/><path fill="#5f91e5" d="M1624.87 250.14a29.7 29.7 0 0 1 29.7 29.69v140.23h-59.39V279.83a29.69 29.69 0 0 1 29.69-29.69Z" class="color5fb6e5 svgShape"/><path fill="#5f91e5" d="M2072.62 1759.56a11 11 0 0 1-6.61-19.8c49.42-37.06 165.9-154.69 253-334.67 114.15-235.84 143.5-495.15 87.24-770.74-80-391.74-320.09-466.29-456.1-475.86-72.35-5.09-146.52 6.17-208.88 31.7-55.52 22.74-95.17 54.58-106.06 85.18a11 11 0 0 1-20.72-7.38c25.48-71.6 170.2-143.19 337.2-131.44 106.82 7.52 204.44 48.38 282.33 118.17C2329.2 340 2394.4 466.23 2427.82 630c31 151.91 36.18 301.42 15.35 444.35a1165.92 1165.92 0 0 1-104.35 340.37c-88.77 183.41-205 301.7-259.62 342.69a10.94 10.94 0 0 1-6.58 2.15Z" class="color5fb6e5 svgShape"/><path fill="#db8078" d="m1333.92 1616.42-97.8 46.83c-101-81.44-148.73-126.59-161.49-157.76-8.12-19.86-24.86-66.46-39.56-109.57-14.24-41.8-26.55-80.3-27.2-87.93-1-11.43 13.44-20.28 30.6-20.07a49.77 49.77 0 0 1 18.77 3.91c23.82 10 60.72 33.13 78.93 58s197.75 266.59 197.75 266.59Z" class="colordb8f78 svgShape"/><path fill="#cde0ff" d="M2717.72 1437.3c21.1-25.14 44.94 266.64-74.55 489.4-81 150.91-324.1 201.08-324.1 201.08s-90.8-139 22.34-356.71 283.59-223.28 376.31-333.77Z" class="colorcdefff svgShape"/><path fill="#fff" d="m2320.1 2128.54-2-1.51c3.21-4.33 321.65-436.25 402.63-691.33l2.42.77C2642 1692 2323.3 2124.2 2320.1 2128.54Z" class="colorffffff svgShape"/><path fill="#fff" d="m2595.18 1705.28-.27-1.36c-1-5-24.06-122-3.6-173.08l2.36.94c-19 47.45.88 156.7 3.46 170.26 12.21-3.81 103.75-33.28 131-69.08l2 1.54c-29.62 38.84-129.45 69.11-133.68 70.39ZM2494.87 1871.5l-.44-.74c-.8-1.37-80.14-137.67-56.2-232.87l2.46.62c-22.77 90.58 49.22 219.25 55.5 230.22 12.64-2 159.89-25.08 191.48-48.64l1.51 2c-33.35 24.88-186.94 48.27-193.46 49.25ZM2385.43 2034.85l-.37-.68c-.8-1.46-79.32-147-55.39-242.17l2.46.62c-22.85 90.87 48.95 228.67 54.79 239.64 12.31-.45 163.88-6.75 208.86-44.72l1.64 1.94c-47.34 40-204.54 45.14-211.21 45.35Z" class="colorffffff svgShape"/><path fill="#e5867e" d="m2413.25 2136.79-469.48 1s-3.7-12-11.12-32.52c-2.26-6.28-4.87-13.35-7.85-21.11a1398.72 1398.72 0 0 0-80.5-174.32c-.76-1.35-1.51-2.7-2.33-4a143.35 143.35 0 0 0-12.5-18.1c-74.31-92.44-231.76-59.82-335.57-94.57-111.32-37.23-219.31-80.85-268.35-139.35-34-40.56-66.3-175.51-83.9-258-7.76-36.45-12.69-62.68-13.6-65.95-2.45-8.8-.19-41.25 27.12-44.39 6-.73 13.1 0 21.64 2.6 47.73 14.77 76.92 109.19 84.84 142.4s50.3 165.2 155 155.4 185.82-11.5 217.77-9.86 49.27-10.81 51-44.94-63.19-102.49-120.87-154.74-75.86-84.34-82.24-110.34c-5.06-20.48 12.94-53.94 50.71-47.19 10.56 1.89 22.65 6.91 36.26 16.28 108.12 74.37 94.17 99.88 241.43 154.33 93.44 34.56 272.44 46.06 362.71 240.8 31.39 67.75 67 143.41 100.89 215.14 30.67 64.75 60 126.3 83.7 176 32.99 69.18 55.24 115.43 55.24 115.43Z" class="colore5957e svgShape"/><path d="M1537.2 1314.39c-13.08-3.33-43.45-34.93-54.9-50.44-5-20.51 12.94-54 50.71-47.2 15.79 10.45 39.48 46.45 44.09 54.64 10.33 18.33-11.23 50.27-39.9 43ZM1049.16 1392.06a27.33 27.33 0 0 1-14.09 3.86c-14.24-41.8-26.55-80.3-27.2-87.93-1-11.43 13.44-20.28 30.6-20.07 10.38 16 23.23 51.1 24 69.61s-4.85 29.29-13.31 34.53ZM1160.39 1344.93c-.06 19.18-8.18 29.72-20.6 37.92-6.77-31.72-11-54.54-11.84-57.39-2.14-7.65-.16-35.89 23.6-38.62 4.06 15.33 8.88 38.9 8.84 58.09Z" style="mix-blend-mode:multiply" fill="#d7e3f8" class="colorf8dfd7 svgShape"/><path fill="#034bc2" d="M2551.47 2177.76h-2140a21 21 0 0 1-21-21 21 21 0 0 1 21-21h2140a21 21 0 0 1 21 21 21 21 0 0 1-21 21Z" class="color0373c2 svgShape"/><path fill="#e9dcb6" d="m2358 2019.3-105.23 54.07a15.89 15.89 0 0 1-22.41-9.41c-17-54-41-100.51-71.51-140.11a15.93 15.93 0 0 1 5.23-23.95l110.22-56.61c30.7 64.76 59.99 126.31 83.7 176.01Z" class="colore9c6b6 svgShape"/><path fill="#f79189" d="M703.56 1475.3s-18.93 87.19-21.42 91.9 23.06 28.28 27.73 14.48 20.57-51 20.57-51Z" class="colorf7a489 svgShape"/><path fill="#e5867e" d="M924.26 910.65c13.65-16.77 16.08-19.57 18.46-30.77s-3.61-28.41-3.61-28.41l-26-5.6-13.51 72.41 21.84 4.41Z" class="colore5957e svgShape"/><path fill="#f79189" d="M837.4 1440s16.52 87.76 16.08 93.16 31.89 15.28 30.8.63-1.06-55.65-1.06-55.65Z" class="colorf7a489 svgShape"/><path fill="#34a853" d="M853 1530.59c-4.21-2.67-8.15 37.74-7.39 41.17s38.57 8.63 42.81 10.33 26.58 11.92 44.23 6.2 1.66-16.81 1.66-16.81-31.2-15.34-36.3-22.33-10.35-18-13.24-17.18-7.94 8-15.47 7.69-13.3-7.18-16.3-9.07ZM683.52 1560.58c-2.72-4.18-23.08 31-23.81 34.39s31.51 23.86 34.67 27.17 19.23 21.88 37.67 24 8.48-14.62 8.48-14.62-22-26.9-23.76-35.37-1.94-20.68-4.91-21.13-10.55 4-17.27.58-9.15-12.06-11.07-15.02Z" class="color48515a svgShape"/><path fill="#e5867e" d="M798.81 901.16c11.05 9.3 77.39 68 95.39 83.39 16.11 13.76-7 57.07-27.51 44.34-25.09-15.6-60.69-37.89-87.59-63.28-16.86-15.89 1.99-79.38 19.71-64.45Z" class="colore5957e svgShape"/><path fill="#e5867e" d="M863.56 1027c12.84 9.34 38.85 15 44.75 4.94 7.86-13.47 12.07-98.05 15.09-117.56.81-5.26-19.14-9.92-22.8-5.68-3.35 3.82-46.15 111.61-37.04 118.3Z" class="colore5957e svgShape"/><path fill="#4285f4" d="M772.91 1103.67c32.84 40.4 115.93 135.55 119.26 163.38s-2.08 231.14-2.49 239.22-53.19 4.6-54.85-1.68-9.14-186.38-14.13-199.39-130.46-140.46-130.46-140.46Z" class="color469fcf svgShape"/><path fill="#4285f4" d="M730.07 1136.57c4.21 20.06 5.87 31.73 36.21 88.29s37 81.68 39.47 97.84-68.53 226.07-72.19 231c-6.13 8.3-55.16-7.75-53.91-24.58.53-7.17 44.6-187.35 43-193.89-5.92-24.24-72.09-136.67-81.85-158.21s3.94-90.89 3.94-90.89Z" class="color469fcf svgShape"/><path fill="#4f87e3" d="M797.2 891.62c12.1 11.46 59.63 49.9 59.63 49.9s-22.43 78.05-26.23 74.48c-5-4.73-48.23-32.6-48.23-32.6Z" class="color4fafe3 svgShape"/><path fill="#5f91e5" d="M791.73 1116.4c-7.5 21.16-164.29 44.79-159.24 4.52 3.81-30.39 9.73-97.19 8.28-117.52-.33-4.63-1.49-12.37-2.94-21.81-.33-2.44-.7-5.05-1.08-7.7-4.59-31.71-13.33-70-.75-86.76 4.1-5.51 70.21-25.66 70.21-25.66l35.31 6.53c13.16.25 55.67 21.44 56.13 24.21 1.78 11.43-4 75.38-10.68 107.95s6.83 110.37 4.76 116.24Z" class="color5fb6e5 svgShape"/><path fill="#f79189" d="m748.18 828.81-1.24 36.38-.37 10.81c-7.37 6.45-48.68-5.51-45.82-11.1s3.85-26 2.31-43.71l43.84 7.45Z" class="colorf7a489 svgShape"/><path d="m748.18 828.81-1.24 36.38c-12.91-3.06-23-11.63-30.75-24.62l30.71-12Z" style="mix-blend-mode:multiply" fill="#d7e3f8" class="colorf8dfd7 svgShape"/><path fill="#f79189" d="M735.75 1060.28c-18.38-12.25-53.77-37-77.61-59.77-8-7.66-14.78-15.11-19.13-21.77-12.62-19.41-27-72.77-6-82.49 11.55-5.34 41.45 22.62 71.75 56.56 23.43 26.21 43.39 50 52.8 56.68 17.32 12.25-1.78 64.16-21.81 50.79ZM764 770.25c8.16 24.45 6 62.19-4.44 75.53s-47.57-3.32-53.89-14.91-28.84-66.5-.87-74.45 50.47-12.19 59.2 13.83Z" class="colorf7a489 svgShape"/><path fill="#34a853" d="M703.06 821.15c5-5.9 10.21-5.44 8.94-19s.69-19.32 10.7-19c12.5.43 24.94-12.88 40.58-14.84 12.74-1.6 20.39-29-15.74-36.16-21.93-4.35-58.74 9.1-67.92 28.89-6.69 14.41 1.16 35.94 4.78 45.28s18.66 14.83 18.66 14.83Z" class="color48515a svgShape"/><path fill="#f79189" d="M702 806.64c-6.15-8.06-13-6.84-14.18-4.3s-2.17 8.31 3 17.22 11.42 13.88 13.15 12.6 2.89-7.45 2-11.72-2.47-11.81-3.97-13.8Z" class="colorf7a489 svgShape"/><path fill="#ea4335" d="M937.52 871.17c4.46-39.79-29.73-120.36-37.24-142.65a.77.77 0 0 0-1.4-.16c-12.08 20-63.59 92.75-67.86 130.89-2.53 22.58 6.74 43.5 22.45 55.29a49.06 49.06 0 0 0 46.07 7.13c19.82-7.01 35.28-26.32 37.98-50.5Z" class="colore23457 svgShape"/><path fill="#4285f4" d="M788.24 988.83a1.43 1.43 0 0 1-.29 0 1.55 1.55 0 0 1-1.24-1.81c0-.23 4.35-23.24 5.47-31.73a1.55 1.55 0 0 1 3.08.41c-1.14 8.57-5.46 31.66-5.5 31.89a1.56 1.56 0 0 1-1.52 1.24Z" class="color469fcf svgShape"/><path fill="#f79189" d="M850.06 935.14c-1.94-7.08 8.83-33.34 12.18-40.48s5 1.9 4.26 6.76-2.86 14.14 3.12 7.75 18.33-19.26 21.8-22.7 2.41 7.1-.38 11.33 8.93 24.88-.71 40.91S871 955.05 871 955.05s-27.2 9.89-24.35.46 4.94-14.79 3.41-20.37Z" class="colorf7a489 svgShape"/><path fill="#f79189" d="M709.22 1041.86c15.17 13.23 28.12 23.84 46.28 24.85 33.37 1.87 106.4-104.24 114.8-111.42 4.05-3.47-17.16-22.69-19.81-17.76-4 7.52-67.24 50.74-91.16 68.86-4.64 3.52-58.61 28.06-50.11 35.47Z" class="colorf7a489 svgShape"/><path fill="#5f91e5" d="M720.23 962c-21.64 29.67-50.48 62.34-54.06 58.46-8.87-9.6-29.76-40-41.38-64.68-12.35-26.19-1.81-65.85 18.4-72.71 11.55-5.38 46.75 44.93 77.04 78.93Z" class="color5fb6e5 svgShape"/><path fill="#4285f4" d="M674.2 1017.68a1.57 1.57 0 0 1-1.11-.47 1.55 1.55 0 0 1 0-2.19c15.91-15.56 41-44.47 45.29-52.81-3.45-4.07-19.95-23.53-26.26-31.21a1.55 1.55 0 0 1 2.4-2c7 8.53 26.67 31.69 26.87 31.92l.6.71-.34.87c-3.2 8.11-31.18 39.83-46.39 54.71a1.56 1.56 0 0 1-1.06.47Z" class="color469fcf svgShape"/><path fill="#2761c2" d="M787 1271.06a1.55 1.55 0 0 1-1.4-.88l-6.08-12.68c-10.07-21-23.85-49.79-38-78.67a1.55 1.55 0 1 1 2.78-1.37c14.15 28.9 27.94 57.68 38 78.7l6.08 12.68a1.56 1.56 0 0 1-.73 2.07 1.63 1.63 0 0 1-.65.15Z" class="color278bc2 svgShape"/><path fill="#5f91e5" d="M2287.54 1957.94a11 11 0 0 0-14.67-5.15c-151.45 72.55-265.6 112.2-348.07 129.32-34.57 7.17-63.57 10.37-87.38 10.37-47.13 0-74.12-12.54-84.05-31.76-11.06-21.37-2.89-54.08 22.4-89.68 16.69-23.47 39.34-46.44 66.2-67.27a143.23 143.23 0 0 0-12.5-18.09c-79 61.2-120.56 137-95.64 185.15 11 21.34 38.27 43.9 104.06 43.9a386.26 386.26 0 0 0 55.08-4.34q18.94-2.73 39.68-7.16c91.78-19.42 209.13-63.28 349.74-130.62a11 11 0 0 0 5.15-14.67Z" class="color5fb6e5 svgShape"/><path fill="#fff" d="M2219.55 745.88h-24.33v-24.33a8.48 8.48 0 0 0-8.48-8.48h-3.13a8.47 8.47 0 0 0-8.48 8.48v24.33h-24.34a8.48 8.48 0 0 0-8.48 8.48v3.13a8.48 8.48 0 0 0 8.48 8.48h24.34v24.33a8.48 8.48 0 0 0 8.48 8.49h3.13a8.49 8.49 0 0 0 8.48-8.49V766h24.33a8.48 8.48 0 0 0 8.48-8.48v-3.13a8.48 8.48 0 0 0-8.48-8.51ZM1138.45 887.33h-19.17v-19.17a6.68 6.68 0 0 0-6.68-6.68h-2.46a6.68 6.68 0 0 0-6.68 6.68v19.17h-19.17a6.68 6.68 0 0 0-6.69 6.68v2.46a6.68 6.68 0 0 0 6.69 6.69h19.17v19.17a6.68 6.68 0 0 0 6.68 6.68h2.46a6.68 6.68 0 0 0 6.68-6.68v-19.17h19.17a6.68 6.68 0 0 0 6.69-6.69V894a6.68 6.68 0 0 0-6.69-6.67ZM1096.64 1137.26h-13.47v-13.48a4.7 4.7 0 0 0-4.7-4.7h-1.73a4.69 4.69 0 0 0-4.7 4.7v13.48h-13.48a4.69 4.69 0 0 0-4.7 4.7v1.73a4.7 4.7 0 0 0 4.7 4.7H1072v13.47a4.69 4.69 0 0 0 4.7 4.7h1.73a4.7 4.7 0 0 0 4.7-4.7v-13.47h13.47a4.7 4.7 0 0 0 4.7-4.7V1142a4.69 4.69 0 0 0-4.66-4.74ZM966.26 1073.89h-9.63v-9.63a3.35 3.35 0 0 0-3.35-3.35H952a3.36 3.36 0 0 0-3.36 3.35v9.63h-9.62a3.35 3.35 0 0 0-3.36 3.35v1.24a3.36 3.36 0 0 0 3.36 3.36h9.62v9.62a3.36 3.36 0 0 0 3.36 3.36h1.24a3.35 3.35 0 0 0 3.35-3.36v-9.62h9.63a3.36 3.36 0 0 0 3.35-3.36v-1.24a3.35 3.35 0 0 0-3.31-3.35ZM2173.11 1147.14h-16.49v-16.48a5.74 5.74 0 0 0-5.75-5.75h-2.12a5.75 5.75 0 0 0-5.75 5.75v16.48h-16.48a5.75 5.75 0 0 0-5.75 5.75v2.11a5.74 5.74 0 0 0 5.75 5.75H2143v16.49a5.76 5.76 0 0 0 5.75 5.75h2.12a5.75 5.75 0 0 0 5.75-5.75v-16.49h16.49a5.75 5.75 0 0 0 5.75-5.75v-2.12a5.76 5.76 0 0 0-5.75-5.74Z" class="colorffffff svgShape"/><path fill="#34a853" d="M2414.2 1281.51c45.58 20.79 31.87 67.44 79.72 92.76s38.58 87.66 7.67 105-105.73 17.77-120.9-13.53-.41-125-1-162.54 34.51-21.69 34.51-21.69Z" class="color48515a svgShape"/><path fill="#4285f4" d="M2407.21 1824.16c-41.2-7.5-61.66-6.11-61.66-6.11l34.45-193.94Z" class="color469fcf svgShape"/><path fill="#cc7770" d="M2425.21 1362.84s-12.44 33.26-45.43 31.86-43.5-30.79-42.71-31.9 18.86-3.81 20.42-7.67c.89-2.21 1.76-11.42 2.15-20.92.23-5.67.3-11.45.09-15.91-.05-1.16-.12-2.23-.21-3.19-1-10.75 43.84-26.28 42.89-12.91-.6 8.33.57 50.45 3.05 52.23s19.75 8.41 19.75 8.41ZM2319.48 2110.47c-3.87-.78-3.52-27.76-3.52-27.76.91-4.32-2.24-51-2.24-51s37.72-1.89 36.16 12.44c-1 9.39-7.74 37.71-7.29 39.08 0 .02-16.91 28.5-23.11 27.24ZM2462.32 2042.69c.68 5.26-2.9 32.42-4.13 45.09-.63 6.5-21.5 13.16-20.82 8.95s-3.36-39.38-9.32-59.76 33.33-1.48 34.27 5.72Z" class="colorcc8570 svgShape"/><path fill="#adb4bf" d="M2472.84 2055.14c-.8 5.46-47.05 5.22-48.55 0-2.11-7.26-11.33-133.12-15.32-172.5s-20.64-140-21.66-153.84-8.56-171.44-8.64-175.82c-.08-3.91 51.27 4.66 61.92 6.47l1.94.34s24.47 65.81 26.42 77.87a2.25 2.25 0 0 1 .09.54c4.26 36 4.93 97.77 5.29 112.36s1.87 100 2.64 121.88-2.63 172.32-4.13 182.7Z" class="colorbfadad svgShape"/><path fill="#adb4bf" d="M2389.86 1701.7c1.71 24.74-15.12 103.09-18.58 126.5s-6.61 65.84-4.18 92.82c.05.33.06.71.1 1.08 2.07 28.53-9.15 128.42-12.47 137.38-1.18 3.16-47.15-1-47.72-7.71-1-12.33-5.62-189.43-5.49-197.44s-.33-49.87-.21-79.81c0-13.55-6.42-141.12 4.2-188.26a353.53 353.53 0 0 1 16.1-52.54l64.27-6s3.59 168.28 3.98 173.98Z" class="colorbfadad svgShape"/><path fill="#4285f4" d="M2203.9 1547.81c13.91 7.61 21.79 17.17 30.4 10.89a165.27 165.27 0 0 0 24.33-22.57 6 6 0 0 1 .54-.63 15.92 15.92 0 0 0 1.31-1.49c27.41-31 49.12-70.56 49.12-70.56l-.34-11.15-.29-9.48-6.2-71.18c-6.66 1.29-105.2 172.72-98.87 176.17ZM2450.56 1457.25s26.28 44.34 31 51.32c3.21 4.79 12 15.79 13.23 17.2 5.69 6.2 37.94 43.79 42.79 27.49 1.52-5.07 1.35-33-20.36-79.17-15.86-33.76-48.24-95.72-51.53-101.25Z" class="color469fcf svgShape"/><path fill="#f7b1ab" d="M2447 1369.1c9.31 13.37-1.44 232.82-.76 269.29.42 22.53-117.45 12.71-123.47-6.07-11.64-36.33 10.86-194.31-17.65-252.83-7.73-15.89 51.4-23.16 51.17-23s10.39 10 26.63 8.77 24-10 24-10 34.62 6.06 40.08 13.84Z" class="colorf7abbe svgShape"/><path fill="#4285f4" d="M2408.3 1355.25c12.35 47.91 18.49 467.51 18.81 472.35s71 5.75 70.28 3.73-36.31-259.27-37.32-274.09c-2.44-35.85 6.63-174.15 6.21-182.35-.58-11.32-58.71-22.46-57.98-19.64ZM2354 1356.75c0 15.84-4.05 462.22-4.64 471.59s-63.78-6.27-63.78-6.27 15.47-207.15 18.95-262-2.1-178.93-2.26-187.23 51.73-20.58 51.73-16.09Z" class="color469fcf svgShape"/><path d="M2397.06 1312c-6.24 14.68-17.82 33.89-38 31.92.24-5.68.88-21.15.67-25.61 14.04-2.64 37.33-6.31 37.33-6.31Z" style="mix-blend-mode:multiply" fill="#e6a09a" class="colore6ab9a svgShape"/><path fill="#cc7770" d="M2418.53 1290c-3.82 9.15-9.64 21.28-17 23.32s-6.32-7.5-6.32-7.5 8.86-18.63 12.07-23 13.2-13.31 13.2-13.31Z" class="colorcc8570 svgShape"/><path fill="#cc7770" d="M2379 1228.63c19 2.38 38 17.72 36.4 35.19s-11.88 43.09-26.57 59.61c-10.72 12-20.36 14.59-26.76 14.6-12 0-23.71-20.92-25.76-48.39-2.08-27.92 7.37-43.93 12.47-49.9s19.59-12.44 30.22-11.11Z" class="colorcc8570 svgShape"/><path fill="#34a853" d="M2409.19 1226.66c7.2-2.55 12.45 1.42 14.14 13.1s-.24 22.36 4.15 32.26-15.58 30.21-19.4 19.3 4.31-19.11-6.62-24.24c-17.07-8-23.73-25.13-23.73-25.13s22.18-12.02 31.46-15.29Z" class="color48515a svgShape"/><path fill="#34a853" d="M2403.79 1226.63c1.93 6.6-5.84 22.91-14.2 23.91s-49.92 16.3-52.37 27.18-22.11-17.11 2-42.34c19.19-20 59-27.82 64.57-8.75Z" class="color48515a svgShape"/><path fill="#034bc2" d="m2325.38 1550.06 94.12-13.73a8.82 8.82 0 0 0 7.33-11l-34.33-128.54a8.94 8.94 0 0 0-9.95-6.47l-94.12 13.74a8.82 8.82 0 0 0-7.34 11l34.34 128.53a8.93 8.93 0 0 0 9.95 6.47Z" class="color0373c2 svgShape"/><path fill="#cc7770" d="M2420 1492.49c-.09-6.39-15.67-25.76-20.27-30.92s-3.76 2.79-2 6.69 5.89 11.13-.75 7.23-20.28-11.68-24.07-13.71-.3 6.52 3.11 9.38-1.48 23 10.63 34.06 20.45 9 20.45 9 25.5 1.69 20.77-5.5-7.87-11.19-7.87-16.23Z" class="colorcc8570 svgShape"/><path fill="#3367bd" d="M2460.25 1566c-3.08-40.31-.58-82.58.91-107.84.31-5.25.59-9.88.77-13.74l2.07.1c-.19 3.86-.46 8.5-.77 13.76-1.49 25.21-4 67.4-.92 107.56Z" class="color338abd svgShape"/><path fill="#4285f4" d="M2409.22 1517.73c5.23 3.06 85.08 47.43 110.56 53.33.61.12 1.23.24 1.76.38l1.83.28c.39 0 .74.06 1 .1s.64 0 .94 0a8 8 0 0 0 .85 0c9.38-.61 13.11-14.33 11.55-27-2.53-20.62-9-22.67-28.76-29.75s-76.44-25.79-84.79-27.73c-2.16-.49-16.43 29.56-14.94 30.39Z" class="color469fcf svgShape"/><path fill="#cc7770" d="M2109.18 1460.92c-8-1.13-17.63-3.32-22.68-5.28s-16.39-6.56-21-5.72c-2.85.51-4.95.35-6.21 1.54-1.92 1.8 1.93 3.91 2.26 5.81.59 3.46 4.62 5.3 8.45 6.86 4 1.65 18.16 14.31 36 12.93s23.47-.27 22.69-4.82-7-10.8-19.43-11.32" class="colorcc8570 svgShape"/><path fill="#cc7770" d="M2142.26 1477.5c-4.54-6.7-6.65-12.33-11.68-16.25s-13.81-8.34-16.78-8.58-21.81-8-23.84-8.18-.89 2 1.1 5 16 10.66 18.46 14 10.29 4.94 10.23 6.5 22.51 7.47 22.51 7.47" class="colorcc8570 svgShape"/><path fill="#cc7770" d="M2127.18 1491.17c-5.1-3.39-3.09-6.26-15.18-7.24s-15.42-1.14-21.24-3.59-20.72-12.29-23.76-15.12 2.18-4.13 9.82.64 13.2 7.09 17 5.84 20.61 1.61 25.9-1.67c4.35-2.7 22.51 7.47 22.51 7.47l-15.08 13.67" class="colorcc8570 svgShape"/><path fill="#4285f4" d="M2119.26 1489.92c4.8 3.7 78.22 57.79 102.72 66.86.6.2 1.19.4 1.7.6l1.78.51c.38.07.72.15 1 .23s.63.11.93.15a6.81 6.81 0 0 0 .84.1c9.38.58 14.86-12.55 15-25.31.17-20.78-6-23.63-24.65-33.15s-72.47-35.23-80.49-38.2c-2.09-.8-20.19 27.2-18.83 28.21Z" class="color469fcf svgShape"/><path fill="#34a853" d="M2479.07 2137.82h-51v-11.36c0-1.91 6.39-47 6.39-47H2460s15.19 41.52 16.91 46.19a34.34 34.34 0 0 1 1.48 6.15c.52 3.2.68 6.02.68 6.02ZM2246.6 2136.64h105.69v-11.15c0-1.27-9.26-45.21-9.26-45.21l-27.07-.85s-15.55 20.59-23.73 25.05-33.58 11.68-40.25 16.56c-3.31 2.42-4.66 6.28-5.18 9.55a24.81 24.81 0 0 0-.2 6.05Z" class="color48515a svgShape"/><path fill="#3367bd" d="M2465.56 1456.63h2.07v89.21h-2.07z" class="color338abd svgShape" transform="rotate(-71.9 2466.379 1501.251)"/><path fill="#ad9391" d="M2399.85 1823.91a1 1 0 0 1-1-.89c-.16-1.13-16.17-113.81-21.18-138.84a1 1 0 0 1 2-.41c5 25.09 21 137.83 21.2 139a1 1 0 0 1-.88 1.17Z" class="colorad9191 svgShape"/></g></svg>